<svg xmlns="http://www.w3.org/2000/svg" xmlns:xlink="http://www.w3.org/1999/xlink" xmlns:xodm="http://www.corel.com/coreldraw/odm/2003" xml:space="preserve" width="15939.000017881393" height="4269" version="1.1" style="shape-rendering: geometricprecision; text-rendering: geometricprecision; fill-rule: evenodd; clip-rule: evenodd;"><rect id="backgroundrect" width="100%" height="100%" x="0" y="0" fill="none" stroke="none" class="" style=""/>
 <defs>
  
 <filter id="f108" xmlns:inkscape="http://www.inkscape.org/namespaces/inkscape" inkscape:label="Specular light" inkscape:menu="ABCs" inkscape:menu-tooltip="Basic specular bevel to use for building textures" color-interpolation-filters="sRGB">
            <feGaussianBlur result="result0" in="SourceAlpha" stdDeviation="6"/>
            <feSpecularLighting specularExponent="25" specularConstant="1" surfaceScale="10" lighting-color="#fff" result="result1" in="result0">
                <feDistantLight azimuth="235" elevation="45"/>
            </feSpecularLighting>
            <feComposite k3="1" k2="1" operator="arithmetic" result="result4" in="SourceGraphic" in2="result91"/>
            <feComposite operator="in" result="result2" in="result4" in2="SourceAlpha"/>
        </filter></defs>
 
<g class="currentLayer" style=""><title>Layer 1</title><g id="Capa_x0020_1" class="" fill="#ffffff" fill-opacity="1" stroke="#ffffff" stroke-opacity="1" filter="">
  <metadata id="CorelCorpID_0Corel-Layer" transform="translate(0,-20) translate(0,20) translate(0,20) translate(0,20) translate(0,20) translate(0,20) translate(0,20) translate(0,20) translate(0,20) translate(0,20) translate(0,20) translate(0,20) translate(0,20) translate(-79.99999237060547,-339.9999694824219) translate(-1279.9998779296875,-1859.9998779296875) "/>
  <polygon class="fil0" points="1860.3402099609375,2532.18994140625 173.400146484375,1783.2601318359375 173.400146484375,1496.2200927734375 1860.3402099609375,652.1800537109375 1860.3402099609375,1147.6700439453125 825.5101318359375,1619.8101806640625 1860.3402099609375,2040.120361328125 " id="svg_1" fill="#ffffff" fill-opacity="1" stroke="#ffffff" stroke-opacity="1" filter=""/>
  <path id="1" class="fil0" d="M3314.340129699707,2829.48015258789 l-499.48,-1757.56 l-14.81,0 c23.36,299.57 34.75,531.94 34.75,697.67 l0,1059.89 l-583.77,0 l0,-2439.85 l877.64,0 l509.16,1732.5 l13.67,0 l498.9,-1732.5 l879.35,0 l0,2439.85 l-605.97,0 l0,-1069.57 c0,-55.81 1.13,-117.32 2.84,-185.67 c1.71,-67.77 9.12,-234.07 22.21,-498.9 l-14.8,0 l-492.64,1754.14 l-627.05,0 z" fill="#ffffff" fill-opacity="1" stroke="#ffffff" stroke-opacity="1" filter=""/>
  <path id="2" class="fil0" d="M6749.150129699707,2829.48015258789 l-124.73,-250.02 l-13.67,0 c-87.7,109.35 -177.12,183.95 -268.24,223.82 c-91.7,40.44 -209.59,60.37 -354.25,60.37 c-177.69,0 -317.8,-53.53 -420.31,-160.04 c-101.95,-107.07 -153.2,-257.42 -153.2,-451.06 c0,-201.04 70.05,-351.4 210.15,-449.93 c140.11,-98.52 342.86,-153.77 608.83,-165.73 l315.51,-10.25 l0,-26.77 c0,-155.48 -76.88,-232.93 -230.08,-232.93 c-138.4,0 -313.24,46.7 -525.68,140.1 l-188.51,-431.13 c219.84,-113.34 498.34,-170.29 833.79,-170.29 c242.61,0 430.56,59.8 563.26,179.97 c133.27,120.17 199.33,288.18 199.33,504.03 l0,1239.86 l-452.2,0 zm-483.53,-427.14 c78.59,0 146.37,-25.06 202.75,-75.18 c55.82,-50.12 84.29,-115.05 84.29,-194.78 l0,-146.94 l-150.35,6.84 c-214.72,7.4 -321.79,86.56 -321.79,236.35 c0,115.61 61.51,173.71 185.1,173.71 z" fill="#ffffff" fill-opacity="1" stroke="#ffffff" stroke-opacity="1" filter=""/>
  <path id="3" class="fil0" d="M8301.110129699708,2829.48015258789 l-652.68,0 l0,-1889.69 l652.68,0 l0,1889.69 zm-669.2,-2361.26 c0,-97.96 27.34,-170.86 81.45,-218.7 c54.67,-47.84 142.95,-71.76 263.69,-71.76 c121.31,0 210.15,24.49 265.4,73.47 c55.81,48.98 83.72,121.31 83.72,216.99 c0,191.36 -116.19,287.04 -349.12,287.04 c-230.09,0 -345.14,-95.68 -345.14,-287.04 z" fill="#ffffff" fill-opacity="1" stroke="#ffffff" stroke-opacity="1" filter=""/>
  <path id="4" class="fil0" d="M9949.890129699706,2829.48015258789 l0,-1030.84 c0,-125.87 -18.22,-220.41 -54.1,-284.77 c-36.45,-63.78 -94.55,-95.68 -174.85,-95.68 c-109.92,0 -189.65,43.86 -238.63,131.56 c-48.98,88.28 -73.47,238.64 -73.47,452.21 l0,827.52 l-652.11,0 l0,-1889.69 l492.07,0 l81.45,232.94 l38.72,0 c55.25,-89.42 132.7,-156.05 231.23,-200.48 c97.96,-44.42 211.3,-66.63 339.44,-66.63 c209.02,0 371.9,60.37 488.08,181.68 c116.19,121.31 174.28,292.17 174.28,512.57 l0,1229.61 l-652.11,0 z" fill="#ffffff" fill-opacity="1" stroke="#ffffff" stroke-opacity="1" filter=""/>
  <polygon id="5" class="fil0" points="10940.8701171875,2040.120361328125 11975.7001953125,1619.8101806640625 10940.8701171875,1147.6700439453125 10940.8701171875,652.1800537109375 12627.8095703125,1496.2200927734375 12627.8095703125,1783.2601318359375 10940.8701171875,2532.18994140625 " fill="#ffffff" fill-opacity="1" stroke="#ffffff" stroke-opacity="1" filter=""/>
  <path class="fil0" d="M3126.2201296997073,3525.0901525878908 c0,173.92 -49.27,307.13 -148.07,399.64 c-99.04,92.51 -241.69,138.89 -428.43,138.89 l-298.6,0 l0,-1056.83 l331.12,0 c172.21,0 305.99,45.64 401.33,136.67 c95.09,91.03 142.65,218.32 142.65,381.63 zm-232.32,5.68 c0,-226.96 -100.03,-340.44 -300.09,-340.44 l-118.99,0 l0,688.27 l96.08,0 c215.33,0 323,-115.94 323,-347.83 z" id="svg_2" fill="#ffffff" fill-opacity="1" stroke="#ffffff" stroke-opacity="1" filter=""/>
  <path id="1" class="fil0" d="M3648.750129699707,3397.550152587891 c-46.81,0 -83.28,14.8 -109.89,44.41 c-26.36,29.6 -41.64,71.54 -45.57,125.81 l309.18,0 c-0.98,-54.27 -15.02,-96.21 -42.61,-125.81 c-27.35,-29.61 -64.56,-44.41 -111.11,-44.41 zm31.03,680.87 c-130.07,0 -231.58,-36.02 -304.75,-107.8 c-73.17,-71.79 -109.63,-173.43 -109.63,-304.91 c0,-135.44 33.75,-240.03 101.26,-314.04 c67.75,-74.01 161.11,-111.01 280.61,-111.01 c114.07,0 202.76,32.56 266.32,97.44 c63.56,65.13 95.34,154.68 95.34,269.39 l0,106.81 l-520.57,0 c2.46,62.66 20.94,111.76 55.43,147.03 c34.74,35.28 83.52,52.79 146.1,52.79 c48.53,0 94.61,-5.18 137.96,-15.29 c43.11,-10.11 88.45,-26.15 135.75,-48.35 l0,170.71 c-38.68,19.24 -79.82,33.8 -123.68,43.17 c-43.6,9.37 -97.06,14.06 -160.14,14.06 z" fill="#ffffff" fill-opacity="1" stroke="#ffffff" stroke-opacity="1" transform="" filter=""/>
  <path id="2" class="fil0" d="M4336.830129699707,4063.6201525878905 l-307.71,-808.16 l230.35,0 l155.95,460.57 c17.25,58.22 28.09,113.48 32.52,165.53 l4.19,0 c2.47,-46.38 13.3,-101.64 32.52,-165.53 l155.46,-460.57 l230.11,0 l-307.48,808.16 l-225.91,0 z" fill="#ffffff" fill-opacity="1" stroke="#ffffff" stroke-opacity="1" transform="" filter=""/>
  <path id="3" class="fil0" d="M5534.650129699707,3823.8401525878908 c0,82.88 -28.58,146.04 -86.23,189.45 c-57.4,43.42 -143.38,65.13 -257.95,65.13 c-58.63,0 -108.65,-3.95 -150.03,-11.84 c-41.4,-8.14 -80.08,-19.74 -116.29,-35.28 l0,-182.06 c40.9,19.25 86.96,35.28 138.21,48.36 c51.25,13.07 96.33,19.49 135.26,19.49 c80.06,0 119.98,-23.19 119.98,-69.57 c0,-17.27 -5.42,-31.33 -16.02,-42.19 c-10.59,-10.85 -28.82,-23.19 -54.69,-37 c-26.11,-13.57 -60.61,-29.6 -103.97,-48.1 c-62.08,-25.91 -107.66,-50.08 -136.73,-72.29 c-29.07,-22.2 -50.26,-47.61 -63.57,-76.22 c-13.3,-28.87 -19.7,-64.14 -19.7,-106.08 c0,-71.54 27.59,-127.05 83.27,-166.27 c55.43,-39.22 134.27,-58.71 236.27,-58.71 c97.31,0 191.67,21.21 283.57,63.4 l-66.27,158.62 c-40.41,-17.27 -78.1,-31.58 -113.34,-42.68 c-34.98,-11.1 -70.95,-16.53 -107.41,-16.53 c-65.04,0 -97.57,17.52 -97.57,52.8 c0,19.73 10.6,37 31.54,51.31 c20.94,14.55 66.76,36.01 137.47,64.38 c62.83,25.66 109.15,49.59 138.46,71.79 c29.32,22.2 51,47.61 65.04,76.48 c13.8,29.1 20.7,63.64 20.7,103.61 z" fill="#ffffff" fill-opacity="1" stroke="#ffffff" stroke-opacity="1" transform="" filter=""/>
  <path id="4" class="fil0" d="M6953.490129699707,3006.7901525878906 l0,684.08 c0,77.95 -16.75,146.29 -50.25,205 c-33.26,58.47 -81.79,103.61 -144.87,135.19 c-63.31,31.57 -138.95,47.36 -227.14,47.36 c-130.83,0 -232.58,-34.78 -305.01,-104.1 c-72.68,-69.57 -109.14,-164.79 -109.14,-286.41 l0,-681.12 l173.19,0 l0,668.54 c0,87.08 20.21,151.47 60.61,192.91 c40.4,41.44 102.49,62.17 186.26,62.17 c162.6,0 243.9,-85.61 243.9,-256.56 l0,-667.06 l172.45,0 z" fill="#ffffff" fill-opacity="1" stroke="#ffffff" stroke-opacity="1" transform="" filter=""/>
  <path id="5" class="fil0" d="M7894.600129699707,4063.6201525878905 l-170.24,0 l0,-491.41 c0,-61.67 -12.57,-107.56 -37.2,-137.9 c-24.88,-30.34 -64.3,-45.64 -118.26,-45.64 c-71.69,0 -124.16,21.22 -157.43,63.65 c-33.26,42.43 -49.77,113.48 -49.77,213.14 l0,398.16 l-169.74,0 l0,-799.28 l132.79,0 l23.9,104.6 l8.620000000000001,0 c24.15,-38.24 58.39,-67.6 102.5,-88.32 c44.34,-20.72 93.61,-31.08 147.32,-31.08 c191.67,0 287.51,97.69 287.51,292.82 l0,521.26 z" fill="#ffffff" fill-opacity="1" stroke="#ffffff" stroke-opacity="1" transform="" filter=""/>
  <path id="6" class="fil0" d="M8286.550129699706,4063.6201525878905 l-169.5,0 l0,-799.28 l169.5,0 l0,799.28 zm-179.6,-1010.94 c0,-30.35 8.13,-53.78 24.88,-70.06 c16.51,-16.53 40.16,-24.67 70.96,-24.67 c29.81,0 53.21,8.14 69.72,24.67 c16.51,16.28 24.89,39.71 24.89,70.06 c0,28.86 -8.38,51.56 -24.89,68.33 c-16.51,16.53 -39.91,24.92 -69.72,24.92 c-30.8,0 -54.45,-8.39 -70.96,-24.92 c-16.75,-16.77 -24.88,-39.47 -24.88,-68.33 z" fill="#ffffff" fill-opacity="1" stroke="#ffffff" stroke-opacity="1" filter=""/>
  <path id="7" class="fil0" d="M8812.780129699708,3940.770152587891 c41.38,0 82.78,-6.42 124.16,-19.49 l0,128.28 c-18.72,8.14 -43.11,15.05 -72.67,20.47 c-29.57,5.68 -60.12,8.39 -91.9,8.39 c-160.63,0 -240.94,-84.86 -240.94,-254.58 l0,-430.73 l-109.15,0 l0,-75.24 l117.03,-62.17 l57.65,-168.98 l104.7,0 l0,177.62 l227.4,0 l0,128.77 l-227.4,0 l0,427.77 c0,40.95 10.11,71.04 30.55,90.53 c20.46,19.49 47.31,29.36 80.57,29.36 z" fill="#ffffff" fill-opacity="1" stroke="#ffffff" stroke-opacity="1" filter=""/>
  <path id="8" class="fil0" d="M9431.380129699706,4078.4201525878907 c-124.16,0 -221.23,-36.26 -291.2,-108.79 c-69.97,-72.53 -104.95,-172.68 -104.95,-299.98 c0,-130.5 32.51,-233.37 97.31,-308.11 c65.04,-74.75 154.22,-112 267.81,-112 c105.2,0 188.47,32.07 249.57,96.21 c61.1,64.14 91.65,152.45 91.65,264.94 l0,91.77 l-531.66,0 c2.21,77.46 23.15,137.16 62.56,178.85 c39.67,41.7 95.11,62.42 166.8,62.42 c47.05,0 90.9,-4.44 131.56,-13.32 c40.65,-8.88 84.5,-23.69 131.07,-44.41 l0,138.15 c-41.4,19.73 -83.27,33.8 -125.65,41.94 c-42.13,8.14 -90.67,12.33 -144.87,12.33 zm-31.03,-700.11 c-53.96,0 -97.08,17.02 -129.59,51.31 c-32.53,34.29 -51.75,84.37 -58.15,149.99 l362.17,0 c-0.99,-66.11 -16.76,-116.19 -47.56,-150.23 c-30.79,-34.05 -73.17,-51.07 -126.87,-51.07 z" fill="#ffffff" fill-opacity="1" stroke="#ffffff" stroke-opacity="1" filter=""/>
  <path id="9" class="fil0" d="M10190.180129699707,4078.4201525878907 c-99.54,0 -177.39,-36.26 -233.07,-108.54 c-55.92,-72.28 -83.77,-173.67 -83.77,-304.42 c0,-131.24 28.34,-233.37 84.75,-306.39 c56.43,-73.02 134.76,-109.53 234.79,-109.53 c104.96,0 184.78,38.73 239.72,116.44 l8.63,0 c-8.14,-57.24 -12.33,-102.63 -12.33,-135.93 l0,-291.34 l170.49,0 l0,1124.91 l-132.8,0 l-29.56,-104.6 l-8.13,0 c-54.2,79.68 -133.77,119.4 -238.72,119.4 zm45.33,-137.65 c69.97,0 120.72,-19.74 152.25,-58.96 c31.79,-39.23 48.28,-102.87 49.27,-191.19 l0,-23.68 c0,-100.65 -16.51,-172.19 -49.27,-214.62 c-32.52,-42.43 -83.76,-63.65 -153.49,-63.65 c-59.86,0 -105.69,24.18 -137.96,72.53 c-32.28,48.6 -48.29,117.42 -48.29,207.22 c0,88.56 15.52,156.16 46.81,202.53 c31.29,46.63 78.1,69.82 140.68,69.82 z" fill="#ffffff" fill-opacity="1" stroke="#ffffff" stroke-opacity="1" filter=""/>
  <path id="10" class="fil1 str0" d="M3126.2201296997073,3525.0901525878908 c0,173.92 -49.27,307.13 -148.07,399.64 c-99.04,92.51 -241.69,138.89 -428.43,138.89 l-298.6,0 l0,-1056.83 l331.12,0 c172.21,0 305.99,45.64 401.33,136.67 c95.09,91.03 142.65,218.32 142.65,381.63 zm-232.32,5.68 c0,-226.96 -100.03,-340.44 -300.09,-340.44 l-118.99,0 l0,688.27 l96.08,0 c215.33,0 323,-115.94 323,-347.83 z" fill="#ffffff" fill-opacity="1" stroke="#ffffff" stroke-opacity="1" filter=""/>
  <path id="11" class="fil1 str0" d="M3648.750129699707,3397.550152587891 c-46.81,0 -83.28,14.8 -109.89,44.41 c-26.36,29.6 -41.64,71.54 -45.57,125.81 l309.18,0 c-0.98,-54.27 -15.02,-96.21 -42.61,-125.81 c-27.35,-29.61 -64.56,-44.41 -111.11,-44.41 zm31.03,680.87 c-130.07,0 -231.58,-36.02 -304.75,-107.8 c-73.17,-71.79 -109.63,-173.43 -109.63,-304.91 c0,-135.44 33.75,-240.03 101.26,-314.04 c67.75,-74.01 161.11,-111.01 280.61,-111.01 c114.07,0 202.76,32.56 266.32,97.44 c63.56,65.13 95.34,154.68 95.34,269.39 l0,106.81 l-520.57,0 c2.46,62.66 20.94,111.76 55.43,147.03 c34.74,35.28 83.52,52.79 146.1,52.79 c48.53,0 94.61,-5.18 137.96,-15.29 c43.11,-10.11 88.45,-26.15 135.75,-48.35 l0,170.71 c-38.68,19.24 -79.82,33.8 -123.68,43.17 c-43.6,9.37 -97.06,14.06 -160.14,14.06 z" fill="#ffffff" fill-opacity="1" stroke="#ffffff" stroke-opacity="1" filter=""/>
  <path id="12" class="fil1 str0" d="M4336.830129699707,4063.6201525878905 l-307.71,-808.16 l230.35,0 l155.95,460.57 c17.25,58.22 28.09,113.48 32.52,165.53 l4.19,0 c2.47,-46.38 13.3,-101.64 32.52,-165.53 l155.46,-460.57 l230.11,0 l-307.48,808.16 l-225.91,0 z" fill="#ffffff" fill-opacity="1" stroke="#ffffff" stroke-opacity="1" filter=""/>
  <path id="13" class="fil1 str0" d="M5534.650129699707,3823.8401525878908 c0,82.88 -28.58,146.04 -86.23,189.45 c-57.4,43.42 -143.38,65.13 -257.95,65.13 c-58.63,0 -108.65,-3.95 -150.03,-11.84 c-41.4,-8.14 -80.08,-19.74 -116.29,-35.28 l0,-182.06 c40.9,19.25 86.96,35.28 138.21,48.36 c51.25,13.07 96.33,19.49 135.26,19.49 c80.06,0 119.98,-23.19 119.98,-69.57 c0,-17.27 -5.42,-31.33 -16.02,-42.19 c-10.59,-10.85 -28.82,-23.19 -54.69,-37 c-26.11,-13.57 -60.61,-29.6 -103.97,-48.1 c-62.08,-25.91 -107.66,-50.08 -136.73,-72.29 c-29.07,-22.2 -50.26,-47.61 -63.57,-76.22 c-13.3,-28.87 -19.7,-64.14 -19.7,-106.08 c0,-71.54 27.59,-127.05 83.27,-166.27 c55.43,-39.22 134.27,-58.71 236.27,-58.71 c97.31,0 191.67,21.21 283.57,63.4 l-66.27,158.62 c-40.41,-17.27 -78.1,-31.58 -113.34,-42.68 c-34.98,-11.1 -70.95,-16.53 -107.41,-16.53 c-65.04,0 -97.57,17.52 -97.57,52.8 c0,19.73 10.6,37 31.54,51.31 c20.94,14.55 66.76,36.01 137.47,64.38 c62.83,25.66 109.15,49.59 138.46,71.79 c29.32,22.2 51,47.61 65.04,76.48 c13.8,29.1 20.7,63.64 20.7,103.61 z" fill="#ffffff" fill-opacity="1" stroke="#ffffff" stroke-opacity="1" filter=""/>
  <path id="14" class="fil1 str0" d="M6953.490129699707,3006.7901525878906 l0,684.08 c0,77.95 -16.75,146.29 -50.25,205 c-33.26,58.47 -81.79,103.61 -144.87,135.19 c-63.31,31.57 -138.95,47.36 -227.14,47.36 c-130.83,0 -232.58,-34.78 -305.01,-104.1 c-72.68,-69.57 -109.14,-164.79 -109.14,-286.41 l0,-681.12 l173.19,0 l0,668.54 c0,87.08 20.21,151.47 60.61,192.91 c40.4,41.44 102.49,62.17 186.26,62.17 c162.6,0 243.9,-85.61 243.9,-256.56 l0,-667.06 l172.45,0 z" fill="#ffffff" fill-opacity="1" stroke="#ffffff" stroke-opacity="1" filter=""/>
  <path id="15" class="fil1 str0" d="M7894.600129699707,4063.6201525878905 l-170.24,0 l0,-491.41 c0,-61.67 -12.57,-107.56 -37.2,-137.9 c-24.88,-30.34 -64.3,-45.64 -118.26,-45.64 c-71.69,0 -124.16,21.22 -157.43,63.65 c-33.26,42.43 -49.77,113.48 -49.77,213.14 l0,398.16 l-169.74,0 l0,-799.28 l132.79,0 l23.9,104.6 l8.620000000000001,0 c24.15,-38.24 58.39,-67.6 102.5,-88.32 c44.34,-20.72 93.61,-31.08 147.32,-31.08 c191.67,0 287.51,97.69 287.51,292.82 l0,521.26 z" fill="#ffffff" fill-opacity="1" stroke="#ffffff" stroke-opacity="1" filter=""/>
  <path id="16" class="fil1 str0" d="M8286.550129699706,4063.6201525878905 l-169.5,0 l0,-799.28 l169.5,0 l0,799.28 zm-179.6,-1010.94 c0,-30.35 8.13,-53.78 24.88,-70.06 c16.51,-16.53 40.16,-24.67 70.96,-24.67 c29.81,0 53.21,8.14 69.72,24.67 c16.51,16.28 24.89,39.71 24.89,70.06 c0,28.86 -8.38,51.56 -24.89,68.33 c-16.51,16.53 -39.91,24.92 -69.72,24.92 c-30.8,0 -54.45,-8.39 -70.96,-24.92 c-16.75,-16.77 -24.88,-39.47 -24.88,-68.33 z" fill="#ffffff" fill-opacity="1" stroke="#ffffff" stroke-opacity="1" filter=""/>
  <path id="17" class="fil1 str0" d="M8812.780129699708,3940.770152587891 c41.38,0 82.78,-6.42 124.16,-19.49 l0,128.28 c-18.72,8.14 -43.11,15.05 -72.67,20.47 c-29.57,5.68 -60.12,8.39 -91.9,8.39 c-160.63,0 -240.94,-84.86 -240.94,-254.58 l0,-430.73 l-109.15,0 l0,-75.24 l117.03,-62.17 l57.65,-168.98 l104.7,0 l0,177.62 l227.4,0 l0,128.77 l-227.4,0 l0,427.77 c0,40.95 10.11,71.04 30.55,90.53 c20.46,19.49 47.31,29.36 80.57,29.36 z" fill="#ffffff" fill-opacity="1" stroke="#ffffff" stroke-opacity="1" filter=""/>
  <path id="18" class="fil1 str0" d="M9431.380129699706,4078.4201525878907 c-124.16,0 -221.23,-36.26 -291.2,-108.79 c-69.97,-72.53 -104.95,-172.68 -104.95,-299.98 c0,-130.5 32.51,-233.37 97.31,-308.11 c65.04,-74.75 154.22,-112 267.81,-112 c105.2,0 188.47,32.07 249.57,96.21 c61.1,64.14 91.65,152.45 91.65,264.94 l0,91.77 l-531.66,0 c2.21,77.46 23.15,137.16 62.56,178.85 c39.67,41.7 95.11,62.42 166.8,62.42 c47.05,0 90.9,-4.44 131.56,-13.32 c40.65,-8.88 84.5,-23.69 131.07,-44.41 l0,138.15 c-41.4,19.73 -83.27,33.8 -125.65,41.94 c-42.13,8.14 -90.67,12.33 -144.87,12.33 zm-31.03,-700.11 c-53.96,0 -97.08,17.02 -129.59,51.31 c-32.53,34.29 -51.75,84.37 -58.15,149.99 l362.17,0 c-0.99,-66.11 -16.76,-116.19 -47.56,-150.23 c-30.79,-34.05 -73.17,-51.07 -126.87,-51.07 z" fill="#ffffff" fill-opacity="1" stroke="#ffffff" stroke-opacity="1" filter=""/>
  <path id="19" class="fil1 str0" d="M10190.180129699707,4078.4201525878907 c-99.54,0 -177.39,-36.26 -233.07,-108.54 c-55.92,-72.28 -83.77,-173.67 -83.77,-304.42 c0,-131.24 28.34,-233.37 84.75,-306.39 c56.43,-73.02 134.76,-109.53 234.79,-109.53 c104.96,0 184.78,38.73 239.72,116.44 l8.63,0 c-8.14,-57.24 -12.33,-102.63 -12.33,-135.93 l0,-291.34 l170.49,0 l0,1124.91 l-132.8,0 l-29.56,-104.6 l-8.13,0 c-54.2,79.68 -133.77,119.4 -238.72,119.4 zm45.33,-137.65 c69.97,0 120.72,-19.74 152.25,-58.96 c31.79,-39.23 48.28,-102.87 49.27,-191.19 l0,-23.68 c0,-100.65 -16.51,-172.19 -49.27,-214.62 c-32.52,-42.43 -83.76,-63.65 -153.49,-63.65 c-59.86,0 -105.69,24.18 -137.96,72.53 c-32.28,48.6 -48.29,117.42 -48.29,207.22 c0,88.56 15.52,156.16 46.81,202.53 c31.29,46.63 78.1,69.82 140.68,69.82 z" fill="#ffffff" fill-opacity="1" stroke="#ffffff" stroke-opacity="1" filter=""/>
  <path class="fil2" d="M12220.130129699706,3087.9001525878903 l92.44,-44.52 c41.51,50.63 110.46,113.15 40.93,149.88 c-63.89,33.75 -102.95,-33.32 -133.37,-105.36 zm2072.14,-2670.29 l75.28,0 c324.53,10.26 648.92,150.83 890.53,366.04 c23.41,20.85 35.47,26.94 59.2,50.87 c228.02,229.87 425.17,616.34 434.11,945.96 c2.43,89.58 4.28,130.93 -0.23,220.43 c-20.15,400 -295.44,770.97 -634.53,974.14 c-269.13,161.24 -608.56,252.35 -927,206.32 c-296.48,-42.85 -246.37,-23.46 -564.71,-121.08 c-73.79,-22.63 -128.53,-54.79 -170.16,-29.02 c-60.02,37.16 -113.1,62.86 -125.6,103.64 c-20.23,66.01 -27.45,109 -69.57,159.03 c-142.88,169.72 -317.39,12.65 -362.1,27.33 c-48.23,15.84 -192.49,107.52 -317.9,30.82 c-35.56,-21.75 -43.26,-41.55 -62.72,-55.81 c-49.18,11.45 -245.74,136.2 -365.58,-6.96 c-20.08,-23.99 -66.64,-89.91 -74.69,-120.04 l-524.94,279.39 c-38.18,18.97 -65.5,37.17 -104.31,56.55 c-121.54,60.71 -250.53,176.73 -285.15,28.12 l417.54,-242.86 c41.54,-24.9 381.39,-230.59 420.66,-239.74 c-14.15,-60.74 -46.86,-103.96 -46.86,-183.59 c0,-99.32 133.92,-192.62 190.79,-205.87 c-19.61,-84.21 -16.93,-54.46 -16.93,-143.94 c0,-90.21 94.46,-162.39 179.44,-169.52 l-10.11,-101.41 c-5.43,-46.78 42.27,-131.6 82.19,-171.81 c34.98,-35.24 104.88,-72.22 163.11,-82.65 c150.69,-27 103.4,77.61 271.51,-33.06 c31.51,-20.74 27.25,-42.71 32.08,-86.46 c56.82,-514.64 291.52,-951.06 749.15,-1223.58 c107.4,-63.96 210.57,-109 333.54,-157.52 c117.34,-46.3 240.2,-69.81 363.96,-73.72 zm-1788.63,2546.99 l106.96,-58.07 l120.01,192.22 c4.25,16.09 -2.77,59.06 -21.92,74.23 c-22.03,17.44 -74.34,14.870000000000001 -99.28,-27.17 l-105.77,-181.21 zm-253.31,-45.25 c-29.72,15.9 -59.61,39.09 -91.3,49.41 c-20.96,-22.86 -32.05,-49.84 -48.25,-76.31 c-31.65,-51.29 59.58,-117.56 93.45,-58.87 c16.84,28.86 34.52,57.84 46.1,85.77 zm540.75,-128.6 c32.03,-20.13 84.54,-55.08 123.72,-63.22 c36.99,44.59 90.09,147.61 121.39,201.85 c48.95,84.82 83.16,109.21 67.08,165.32 c-20.02,69.81 -103.25,58.24 -134.08,3.54 l-178.11,-307.49 zm-286.45,-64.78 l-106.32,62.21 l-133.25,-215.61 c1.96,-75.5 75.79,-135.85 143.62,-8.42 c34.09,55.78 66.05,106.55 95.95,161.82 zm315.04,-167.25 c-17.69,22.7 -92.68,63.89 -122.97,75.15 l-188.2,-320.63 c-23.41,-40.63 -8.93,-80.04 20.42,-97.56 c42.65,-25.45 82.82,-10.95 104.31,24.3 c59.3,97.24 124.58,227.76 186.44,318.74 zm1144.99,-642.51 c0,-131.83 140.22,-357.64 -8.47,-457.2 c-54.24,14.48 -102.21,100.24 -121.96,157.43 c-24.12,69.86 -40.97,156.35 -56.53,231.35 c-8.39,40.47 -17.55,72.27 -26.71,117.21 c-31.77,155.89 -120.97,149.32 -226.59,205.21 c-21.13,-90.69 -50.8,-59.22 -50.8,-262.47 c0,-158.65 92.87,-350.64 228.94,-431.45 c238.2,-141.46 379.16,-152.75 660.05,-152.75 c113.81,0 234.65,20.45 328.5,44.04 l214.97,64.42 c59.47,23.15 49.2,22.05 49.2,120.14 c0,231.13 -113.13,509.43 -249.08,682.26 c-112.5,143.04 -358.05,333.74 -606.05,333.74 c-131.34,0 -204.71,-3.92 -318.48,-79.45 c-44.32,-29.42 -142.34,-116.26 -147.19,-174.55 c226.72,-119.96 214.56,-97.26 458.2,-26.39 c66.01,19.2 170.06,60.26 244.53,60.26 c65.33,0 88.27,-22.87 135.47,-33.87 c0,-177.29 -91.98,-119.23 -295.29,-187.3 c-37.86,-12.68 -80.52,-32.2 -119.58,-41.3 c42.29,-57.72 145.44,-101.6 245.54,-101.6 c109.77,0 94.39,50.8 304.8,50.8 c42.55,0 37.91,-7.61 76.2,-8.46 c0,-55.6 -7.65,-112.97 -40.26,-137.55 c-18.43,-13.88 -38.52,-17.73 -62.07,-22.59 c-41.15,-8.51 -38.02,-6.72 -67.01,-26.13 c13.07,-48.92 81.12,-63.65 124.74,-86.93 c58.75,-31.36 37.48,-97.81 36.13,-158.6 c-121.44,0 -102.78,-10.37 -186.19,33.94 c-28.86,15.33 -58.31,24.56 -84.74,42.26 c13.65,-202.77 24.27,-137.61 -42.34,-237.07 c-28.13,6.55 -53.78,16.41 -81.45,28.62 c-31.77,14.02 -43.21,27.1 -52.75,57.31 c-58.12,183.92 58.23,226.31 -263.73,396.67 zm-668.86,-33.87 c0,102.73 7.55,121.93 26.09,210.98 c11.66,56.03 33.17,112 33.17,178.49 c-50.23,11.7 -101.57,49.29 -146.74,73.39 c-46.31,24.7 -220.99,127.3 -251.19,129.81 c-26.82,-50.69 -52.99,-94.55 -82.06,-146.54 l-87.27,-149.79 c60.96,-40.83 105.87,-75.79 172.29,-107.11 c72.19,-34.03 52,-51.4 79.29,-217.04 c10.04,-60.93 19.51,-103.67 31.33,-163.41 c84.01,-424.7 275.94,-692.83 633.08,-907.85 c202.53,-121.94 365.38,-187.86 650.34,-187.86 c377.98,0 710.38,215.1 891.53,429.27 c39.96,47.23 60.52,63.58 100.81,127.78 l114.17,199.1 c87.86,175.72 121.15,358.48 121.15,581.58 c0,237.59 -96.89,451.8 -235.1,620.03 c-132.83,161.68 -302.74,286.31 -499.06,364.55 c-406.92,162.16 -714.96,105.44 -1117,-13.95 l-272.89,-70.39 l-229.68,115.76 c-28.31,-53.5 -55.09,-99.83 -85.1,-151.96 c-17.88,-31.06 -76.06,-122.23 -84.23,-152.84 c65.43,-34.62 124.19,-73.88 186.69,-109.64 c66.65,-38.13 126.01,-74.35 194.31,-110.49 c97.33,65.17 147.66,120.89 270.83,203.3 c145.54,97.39 289.84,118.43 465.77,118.43 c130.52,0 304.56,-88.97 399.16,-159.63 c56.02,-41.86 98.55,-83.99 152.55,-126.85 l63.74,-71.73 c224.76,-265.95 358.21,-592.81 358.21,-954.12 c0,-51.51 -8.46,-61.76 -8.46,-110.07 c-39.74,-3.3 -70.46,-17.57 -107.04,-28.43 c-42.47,-12.620000000000001 -69.86,-21.13 -111.3,-32.63 c-469.38,-130.26 -870.41,-270.6 -1332.39,68.2 c-153.71,112.73 -295,288.32 -295,551.66 z" id="svg_3" fill="#ffffff" fill-opacity="1" stroke="#ffffff" stroke-opacity="1" filter=""/>
  <path class="fil2" d="M10840.470129699706,3702.680152587891 c0,42.02 10.52,74.63 45.55,98.38 c188.3,127.62 323.35,-91.99 211.12,-202.66 c-106.02,-104.55 -256.67,-22.6 -256.67,104.28 z" id="svg_4" fill="#ffffff" fill-opacity="1" stroke="#ffffff" stroke-opacity="1" filter=""/>
 </g></g></svg>