<svg width="82" height="82" viewBox="0 0 82 82" fill="none" xmlns="http://www.w3.org/2000/svg">
<path d="M3.67246 46.0377C1.44251 43.8077 1.44252 40.1923 3.67246 37.9623L37.9623 3.67246C40.1923 1.44251 43.8077 1.44252 46.0377 3.67246L80.3275 37.9623C82.5575 40.1923 82.5575 43.8077 80.3275 46.0377L46.0377 80.3275C43.8077 82.5575 40.1923 82.5575 37.9623 80.3275L3.67246 46.0377Z" fill="#EE513B"/>
<path d="M29.6457 12.0615L25.934 15.2544L35.5204 23.5007C35.1326 24.2164 34.9161 25.0146 34.9161 25.8563C34.9161 28.2459 36.6615 30.2848 39.1154 31.0813V51.2538C36.6615 52.0503 34.9161 54.0892 34.9161 56.4789C34.9161 59.5621 37.8217 62.0615 41.406 62.0615C44.9903 62.0615 47.8959 59.5621 47.8959 56.4789C47.8959 54.3124 46.4613 52.4341 44.3646 51.5087V31.1086L53.5284 38.9914C53.1595 39.6926 52.9542 40.471 52.9542 41.2907C52.9542 44.3739 55.8598 46.8734 59.4441 46.8734C63.0283 46.8734 65.934 44.3739 65.934 41.2907C65.934 38.2075 63.0283 35.708 59.4441 35.708C58.7475 35.708 58.0767 35.8024 57.4477 35.9771L47.606 27.5112C47.7944 26.9883 47.8959 26.4324 47.8959 25.8563C47.8959 22.773 44.9903 20.2736 41.406 20.2736C40.7362 20.2736 40.09 20.3609 39.4822 20.523L29.6457 12.0615Z" fill="white"/>
</svg>
