<svg width="80" height="80" viewBox="0 0 80 80" fill="none" xmlns="http://www.w3.org/2000/svg">
<g clip-path="url(#clip0)">
<path fill-rule="evenodd" clip-rule="evenodd" d="M33.4754 2C27.1981 2 22.1093 6.92723 22.1093 13.0053V20.6243H41.7814V22.7407H13.3661C7.08878 22.7407 2 27.668 2 33.746L2 50.2539C2 56.332 7.08878 61.2592 13.3661 61.2592H19.9235V51.9471C19.9235 45.869 25.0123 40.9418 31.2896 40.9418H52.2732C57.5848 40.9418 61.8907 36.7726 61.8907 31.6296V13.0053C61.8907 6.92723 56.8019 2 50.5246 2H33.4754ZM30.8524 15.545C33.0254 15.545 34.7869 13.8394 34.7869 11.7354C34.7869 9.6315 33.0254 7.92592 30.8524 7.92592C28.6795 7.92592 26.918 9.6315 26.918 11.7354C26.918 13.8394 28.6795 15.545 30.8524 15.545Z" fill="url(#paint0_linear)"/>
<path fill-rule="evenodd" clip-rule="evenodd" d="M50.5246 82C56.8019 82 61.8907 77.0727 61.8907 70.9947V63.3756L42.2186 63.3756L42.2186 61.2592H70.6339C76.9112 61.2592 82 56.332 82 50.2539V33.746C82 27.668 76.9112 22.7407 70.6339 22.7407L64.0765 22.7407V32.0529C64.0765 38.1309 58.9877 43.0582 52.7104 43.0582H31.7268C26.4152 43.0582 22.1093 47.2274 22.1093 52.3703L22.1093 70.9947C22.1093 77.0727 27.1981 82 33.4754 82H50.5246ZM53.1475 68.455C50.9746 68.455 49.2131 70.1606 49.2131 72.2645C49.2131 74.3684 50.9746 76.074 53.1475 76.074C55.3205 76.074 57.082 74.3684 57.082 72.2645C57.082 70.1606 55.3205 68.455 53.1475 68.455Z" fill="url(#paint1_linear)"/>
</g>
<defs>
<linearGradient id="paint0_linear" x1="31.9453" y1="2" x2="31.9453" y2="61.2592" gradientUnits="userSpaceOnUse">
<stop stop-color="#327EBD"/>
<stop offset="1" stop-color="#1565A7"/>
</linearGradient>
<linearGradient id="paint1_linear" x1="52.0547" y1="22.7407" x2="52.0547" y2="82" gradientUnits="userSpaceOnUse">
<stop stop-color="#FFDA4B"/>
<stop offset="1" stop-color="#F9C600"/>
</linearGradient>
<clipPath id="clip0">
<rect width="80" height="80" fill="white"/>
</clipPath>
</defs>
</svg>
