<svg width="80" height="80" viewBox="0 0 80 80" fill="none" xmlns="http://www.w3.org/2000/svg">
<g clip-path="url(#clip0)">
<circle cx="42" cy="42" r="40" fill="#028CB0"/>
<path d="M13.8 42C13.8 53.175 20.3 62.8 29.7 67.375L16.25 30.525C14.6349 34.135 13.8001 38.0452 13.8 42ZM42 70.2C45.275 70.2 48.425 69.625 51.375 68.6L51.175 68.225L42.5 44.475L34.05 69.05C36.55 69.8 39.225 70.2 42 70.2ZM45.875 28.775L56.075 59.1L58.9 49.7C60.1 45.8 61.025 43 61.025 40.575C61.025 37.075 59.775 34.675 58.725 32.825C57.275 30.475 55.95 28.5 55.95 26.2C55.95 23.6 57.9 21.2 60.7 21.2H61.05C55.8539 16.4298 49.0537 13.7883 42 13.8C37.3295 13.7991 32.7321 14.9593 28.6213 17.1762C24.5105 19.3931 21.0152 22.5971 18.45 26.5L20.25 26.55C23.2 26.55 27.75 26.175 27.75 26.175C29.3 26.1 29.475 28.325 27.95 28.5C27.95 28.5 26.425 28.7 24.7 28.775L35 59.325L41.175 40.825L36.775 28.775C35.7894 28.7206 34.8057 28.6372 33.825 28.525C32.3 28.425 32.475 26.1 34 26.175C34 26.175 38.65 26.55 41.425 26.55C44.375 26.55 48.925 26.175 48.925 26.175C50.45 26.1 50.65 28.325 49.125 28.5C49.125 28.5 47.6 28.675 45.875 28.775ZM56.175 66.375C60.4411 63.8945 63.9816 60.3378 66.4427 56.0605C68.9038 51.7831 70.1994 46.9349 70.2 42C70.2 37.1 68.95 32.5 66.75 28.475C67.1968 32.9032 66.5263 37.3728 64.8 41.475L56.175 66.375ZM42 74.5C33.3805 74.5 25.114 71.0759 19.019 64.981C12.9241 58.886 9.5 50.6195 9.5 42C9.5 33.3805 12.9241 25.114 19.019 19.019C25.114 12.9241 33.3805 9.5 42 9.5C50.6195 9.5 58.886 12.9241 64.981 19.019C71.0759 25.114 74.5 33.3805 74.5 42C74.5 50.6195 71.0759 58.886 64.981 64.981C58.886 71.0759 50.6195 74.5 42 74.5Z" fill="white"/>
</g>
<defs>
<clipPath id="clip0">
<rect width="80" height="80" fill="white"/>
</clipPath>
</defs>
</svg>
